<svg xmlns="http://www.w3.org/2000/svg" width="1200" height="750" viewBox="0 0 1200 750" role="img" aria-label="Placeholder screenshot: OctiPad workspace 2">
  <defs>
    <linearGradient id="bg" x1="0" y1="0" x2="1" y2="1">
      <stop offset="0" stop-color="#0b1020"/>
      <stop offset="1" stop-color="#121a33"/>
    </linearGradient>
  </defs>
  <rect width="1200" height="750" fill="url(#bg)"/>
  <rect x="40" y="40" width="1120" height="670" rx="22" fill="rgba(255,255,255,0.05)" stroke="rgba(255,255,255,0.12)"/>
  <rect x="70" y="90" width="1060" height="56" rx="14" fill="rgba(255,255,255,0.06)"/>

  <rect x="70" y="170" width="1060" height="250" rx="18" fill="rgba(255,255,255,0.04)" stroke="rgba(255,255,255,0.10)"/>
  <rect x="70" y="440" width="520" height="240" rx="18" fill="rgba(45,212,191,0.10)" stroke="rgba(45,212,191,0.45)"/>
  <rect x="610" y="440" width="520" height="240" rx="18" fill="rgba(124,92,255,0.10)" stroke="rgba(124,92,255,0.45)"/>

  <text x="90" y="128" font-family="Inter, system-ui" font-size="20" fill="rgba(255,255,255,0.75)">OctiPad (placeholder) · Multi-panel workspace</text>
  <text x="92" y="214" font-family="Inter, system-ui" font-size="18" font-weight="700" fill="rgba(255,255,255,0.85)">Shared text</text>

  <text x="92" y="484" font-family="Inter, system-ui" font-size="18" font-weight="700" fill="rgba(255,255,255,0.85)">Coordination panel</text>
  <text x="632" y="484" font-family="Inter, system-ui" font-size="18" font-weight="700" fill="rgba(255,255,255,0.85)">Prior-knowledge activation</text>

  <rect x="92" y="240" width="980" height="16" rx="8" fill="rgba(255,255,255,0.10)"/>
  <rect x="92" y="270" width="910" height="16" rx="8" fill="rgba(255,255,255,0.10)"/>
  <rect x="92" y="300" width="960" height="16" rx="8" fill="rgba(255,255,255,0.10)"/>
  <rect x="92" y="330" width="780" height="16" rx="8" fill="rgba(255,255,255,0.10)"/>
</svg>
