<svg xmlns="http://www.w3.org/2000/svg" width="1200" height="750" viewBox="0 0 1200 750" role="img" aria-label="Placeholder screenshot: OctiPad workspace 1">
  <defs>
    <linearGradient id="bg" x1="0" y1="0" x2="1" y2="1">
      <stop offset="0" stop-color="#0b1020"/>
      <stop offset="1" stop-color="#121a33"/>
    </linearGradient>
  </defs>
  <rect width="1200" height="750" fill="url(#bg)"/>
  <rect x="40" y="40" width="1120" height="670" rx="22" fill="rgba(255,255,255,0.05)" stroke="rgba(255,255,255,0.12)"/>
  <rect x="70" y="90" width="1060" height="56" rx="14" fill="rgba(255,255,255,0.06)"/>
  <rect x="70" y="170" width="320" height="510" rx="18" fill="rgba(124,92,255,0.10)" stroke="rgba(124,92,255,0.45)"/>
  <rect x="410" y="170" width="720" height="510" rx="18" fill="rgba(255,255,255,0.04)" stroke="rgba(255,255,255,0.10)"/>

  <text x="90" y="128" font-family="Inter, system-ui" font-size="20" fill="rgba(255,255,255,0.75)">OctiPad (placeholder) · Structured workspace</text>
  <text x="92" y="214" font-family="Inter, system-ui" font-size="18" font-weight="700" fill="rgba(255,255,255,0.85)">Workspace structure</text>
  <text x="92" y="250" font-family="Inter, system-ui" font-size="16" fill="rgba(255,255,255,0.62)">- Section prompts</text>
  <text x="92" y="276" font-family="Inter, system-ui" font-size="16" fill="rgba(255,255,255,0.62)">- Roles / coordination</text>
  <text x="92" y="302" font-family="Inter, system-ui" font-size="16" fill="rgba(255,255,255,0.62)">- Task phases</text>

  <text x="430" y="214" font-family="Inter, system-ui" font-size="18" font-weight="700" fill="rgba(255,255,255,0.85)">Collaborative writing area</text>
  <rect x="430" y="240" width="680" height="16" rx="8" fill="rgba(255,255,255,0.10)"/>
  <rect x="430" y="270" width="610" height="16" rx="8" fill="rgba(255,255,255,0.10)"/>
  <rect x="430" y="300" width="660" height="16" rx="8" fill="rgba(255,255,255,0.10)"/>
  <rect x="430" y="330" width="520" height="16" rx="8" fill="rgba(255,255,255,0.10)"/>
</svg>
